<mxfile host="app.diagrams.net" agent="Mozilla/5.0 (Windows NT 10.0; Win64; x64) AppleWebKit/537.36 (KHTML, like Gecko) Chrome/131.0.0.0 Safari/537.36" version="25.0.3">
  <diagram name="Page-1" id="74b105a0-9070-1c63-61bc-23e55f88626e">
    <mxGraphModel dx="1195" dy="650" grid="0" gridSize="10" guides="1" tooltips="1" connect="1" arrows="1" fold="1" page="1" pageScale="1.5" pageWidth="1169" pageHeight="826" background="none" math="0" shadow="0">
      <root>
        <mxCell id="0" style=";html=1;" />
        <mxCell id="1" style=";html=1;" parent="0" />
        <mxCell id="LVZCf0hYnNkqwHZgKI_H-1" value="Máy chủ" style="rounded=1;whiteSpace=wrap;html=1;fillColor=default;" parent="1" vertex="1">
          <mxGeometry x="240" y="151" width="120" height="60" as="geometry" />
        </mxCell>
        <mxCell id="LVZCf0hYnNkqwHZgKI_H-2" value="MQTT Broker" style="rounded=1;whiteSpace=wrap;html=1;fillColor=default;" parent="1" vertex="1">
          <mxGeometry x="240" y="279" width="120" height="60" as="geometry" />
        </mxCell>
        <mxCell id="LVZCf0hYnNkqwHZgKI_H-3" value="Thiết bị Raspberry Pi" style="rounded=1;whiteSpace=wrap;html=1;fillColor=default;" parent="1" vertex="1">
          <mxGeometry x="240" y="410" width="120" height="60" as="geometry" />
        </mxCell>
        <mxCell id="LVZCf0hYnNkqwHZgKI_H-4" value="" style="shape=flexArrow;endArrow=classic;startArrow=classic;html=1;rounded=0;entryX=0.5;entryY=1;entryDx=0;entryDy=0;" parent="1" source="LVZCf0hYnNkqwHZgKI_H-2" target="LVZCf0hYnNkqwHZgKI_H-1" edge="1">
          <mxGeometry width="100" height="100" relative="1" as="geometry">
            <mxPoint x="343" y="539" as="sourcePoint" />
            <mxPoint x="443" y="439" as="targetPoint" />
          </mxGeometry>
        </mxCell>
        <mxCell id="LVZCf0hYnNkqwHZgKI_H-5" value="" style="shape=flexArrow;endArrow=classic;startArrow=classic;html=1;rounded=0;entryX=0.5;entryY=1;entryDx=0;entryDy=0;" parent="1" edge="1">
          <mxGeometry width="100" height="100" relative="1" as="geometry">
            <mxPoint x="299.5" y="409" as="sourcePoint" />
            <mxPoint x="299.5" y="341" as="targetPoint" />
          </mxGeometry>
        </mxCell>
        <mxCell id="LVZCf0hYnNkqwHZgKI_H-7" value="Publish" style="text;html=1;align=center;verticalAlign=middle;whiteSpace=wrap;rounded=0;" parent="1" vertex="1">
          <mxGeometry x="321" y="360" width="60" height="30" as="geometry" />
        </mxCell>
        <mxCell id="LVZCf0hYnNkqwHZgKI_H-8" value="Publish" style="text;html=1;align=center;verticalAlign=middle;whiteSpace=wrap;rounded=0;" parent="1" vertex="1">
          <mxGeometry x="321" y="230" width="60" height="30" as="geometry" />
        </mxCell>
        <mxCell id="LVZCf0hYnNkqwHZgKI_H-9" value="Subcribe" style="text;html=1;align=center;verticalAlign=middle;whiteSpace=wrap;rounded=0;" parent="1" vertex="1">
          <mxGeometry x="218" y="230" width="60" height="30" as="geometry" />
        </mxCell>
        <mxCell id="LVZCf0hYnNkqwHZgKI_H-10" value="Subcribe" style="text;html=1;align=center;verticalAlign=middle;whiteSpace=wrap;rounded=0;" parent="1" vertex="1">
          <mxGeometry x="218" y="360" width="60" height="30" as="geometry" />
        </mxCell>
        <mxCell id="LVZCf0hYnNkqwHZgKI_H-11" value="Giao diện web" style="rounded=1;whiteSpace=wrap;html=1;" parent="1" vertex="1">
          <mxGeometry x="326" y="720" width="277" height="111" as="geometry" />
        </mxCell>
        <mxCell id="LVZCf0hYnNkqwHZgKI_H-12" value="Máy chủ" style="rounded=1;whiteSpace=wrap;html=1;" parent="1" vertex="1">
          <mxGeometry x="326" y="942" width="277" height="111" as="geometry" />
        </mxCell>
        <mxCell id="LVZCf0hYnNkqwHZgKI_H-13" value="" style="shape=flexArrow;endArrow=classic;startArrow=classic;html=1;rounded=0;entryX=0.25;entryY=1;entryDx=0;entryDy=0;exitX=0.25;exitY=0;exitDx=0;exitDy=0;" parent="1" source="LVZCf0hYnNkqwHZgKI_H-12" target="LVZCf0hYnNkqwHZgKI_H-11" edge="1">
          <mxGeometry width="100" height="100" relative="1" as="geometry">
            <mxPoint x="421" y="988" as="sourcePoint" />
            <mxPoint x="521" y="888" as="targetPoint" />
          </mxGeometry>
        </mxCell>
        <mxCell id="LVZCf0hYnNkqwHZgKI_H-14" value="" style="shape=flexArrow;endArrow=classic;startArrow=classic;html=1;rounded=0;exitX=0.75;exitY=0;exitDx=0;exitDy=0;entryX=0.75;entryY=1;entryDx=0;entryDy=0;" parent="1" source="LVZCf0hYnNkqwHZgKI_H-12" target="LVZCf0hYnNkqwHZgKI_H-11" edge="1">
          <mxGeometry width="100" height="100" relative="1" as="geometry">
            <mxPoint x="526" y="942" as="sourcePoint" />
            <mxPoint x="517" y="877" as="targetPoint" />
          </mxGeometry>
        </mxCell>
        <mxCell id="LVZCf0hYnNkqwHZgKI_H-15" value="HTTP" style="text;html=1;align=center;verticalAlign=middle;whiteSpace=wrap;rounded=0;" parent="1" vertex="1">
          <mxGeometry x="549" y="872" width="60" height="30" as="geometry" />
        </mxCell>
        <mxCell id="LVZCf0hYnNkqwHZgKI_H-16" value="Websocket" style="text;html=1;align=center;verticalAlign=middle;whiteSpace=wrap;rounded=0;" parent="1" vertex="1">
          <mxGeometry x="318" y="872" width="60" height="30" as="geometry" />
        </mxCell>
        <mxCell id="LVZCf0hYnNkqwHZgKI_H-17" value="&lt;div style=&quot;&quot;&gt;&lt;span style=&quot;background-color: initial;&quot;&gt;Cơ sở dữ liệu&lt;/span&gt;&lt;/div&gt;" style="shape=cylinder3;whiteSpace=wrap;html=1;boundedLbl=1;backgroundOutline=1;size=15;align=center;" parent="1" vertex="1">
          <mxGeometry x="139" y="949" width="72" height="93.5" as="geometry" />
        </mxCell>
        <mxCell id="LVZCf0hYnNkqwHZgKI_H-18" value="" style="shape=flexArrow;endArrow=classic;startArrow=classic;html=1;rounded=0;entryX=0;entryY=0.5;entryDx=0;entryDy=0;exitX=1;exitY=0.531;exitDx=0;exitDy=0;exitPerimeter=0;startWidth=10;startSize=2.41;endWidth=10;endSize=2.41;" parent="1" source="LVZCf0hYnNkqwHZgKI_H-17" target="LVZCf0hYnNkqwHZgKI_H-12" edge="1">
          <mxGeometry width="100" height="100" relative="1" as="geometry">
            <mxPoint x="212" y="1006" as="sourcePoint" />
            <mxPoint x="312" y="906" as="targetPoint" />
          </mxGeometry>
        </mxCell>
        <mxCell id="LVZCf0hYnNkqwHZgKI_H-20" value="&lt;b&gt;&lt;font style=&quot;font-size: 16px;&quot;&gt;Máy chủ&lt;/font&gt;&lt;/b&gt;" style="rounded=1;whiteSpace=wrap;html=1;" parent="1" vertex="1">
          <mxGeometry x="758" y="225" width="333" height="111" as="geometry" />
        </mxCell>
        <mxCell id="LVZCf0hYnNkqwHZgKI_H-21" value="" style="shape=flexArrow;endArrow=classic;startArrow=classic;html=1;rounded=0;exitX=0.231;exitY=0;exitDx=0;exitDy=0;exitPerimeter=0;entryX=0.231;entryY=0.991;entryDx=0;entryDy=0;entryPerimeter=0;" parent="1" source="LVZCf0hYnNkqwHZgKI_H-20" target="DWsVAxynY-4hJKjRqhUx-7" edge="1">
          <mxGeometry width="100" height="100" relative="1" as="geometry">
            <mxPoint x="881" y="242" as="sourcePoint" />
            <mxPoint x="839" y="100" as="targetPoint" />
          </mxGeometry>
        </mxCell>
        <mxCell id="LVZCf0hYnNkqwHZgKI_H-22" value="" style="shape=flexArrow;endArrow=classic;startArrow=classic;html=1;rounded=0;exitX=0.75;exitY=0;exitDx=0;exitDy=0;entryX=0.75;entryY=1;entryDx=0;entryDy=0;entryPerimeter=0;" parent="1" source="LVZCf0hYnNkqwHZgKI_H-20" target="DWsVAxynY-4hJKjRqhUx-7" edge="1">
          <mxGeometry width="100" height="100" relative="1" as="geometry">
            <mxPoint x="986" y="196" as="sourcePoint" />
            <mxPoint x="1014" y="104" as="targetPoint" />
          </mxGeometry>
        </mxCell>
        <mxCell id="LVZCf0hYnNkqwHZgKI_H-23" value="&lt;font style=&quot;font-size: 14px;&quot;&gt;HTTP&lt;/font&gt;" style="text;html=1;align=center;verticalAlign=middle;whiteSpace=wrap;rounded=0;" parent="1" vertex="1">
          <mxGeometry x="1015" y="169" width="60" height="30" as="geometry" />
        </mxCell>
        <mxCell id="LVZCf0hYnNkqwHZgKI_H-24" value="&lt;font style=&quot;font-size: 14px;&quot;&gt;Websocket&lt;/font&gt;" style="text;html=1;align=center;verticalAlign=middle;whiteSpace=wrap;rounded=0;" parent="1" vertex="1">
          <mxGeometry x="753" y="169" width="60" height="30" as="geometry" />
        </mxCell>
        <mxCell id="LVZCf0hYnNkqwHZgKI_H-25" value="&lt;div style=&quot;&quot;&gt;&lt;span style=&quot;background-color: initial;&quot;&gt;&lt;font style=&quot;font-size: 14px;&quot;&gt;Cơ sở dữ liệu&lt;/font&gt;&lt;/span&gt;&lt;/div&gt;" style="shape=cylinder3;whiteSpace=wrap;html=1;boundedLbl=1;backgroundOutline=1;size=15;align=center;" parent="1" vertex="1">
          <mxGeometry x="602" y="233.75" width="72" height="93.5" as="geometry" />
        </mxCell>
        <mxCell id="LVZCf0hYnNkqwHZgKI_H-26" value="" style="shape=flexArrow;endArrow=classic;startArrow=classic;html=1;rounded=0;entryX=0;entryY=0.5;entryDx=0;entryDy=0;exitX=1;exitY=0.5;exitDx=0;exitDy=0;exitPerimeter=0;startWidth=10;startSize=2.41;endWidth=10;endSize=2.41;" parent="1" source="LVZCf0hYnNkqwHZgKI_H-25" target="LVZCf0hYnNkqwHZgKI_H-20" edge="1">
          <mxGeometry width="100" height="100" relative="1" as="geometry">
            <mxPoint x="672" y="260" as="sourcePoint" />
            <mxPoint x="772" y="160" as="targetPoint" />
          </mxGeometry>
        </mxCell>
        <mxCell id="LVZCf0hYnNkqwHZgKI_H-27" value="" style="rounded=1;whiteSpace=wrap;html=1;" parent="1" vertex="1">
          <mxGeometry x="737.5" y="424" width="374" height="278" as="geometry" />
        </mxCell>
        <mxCell id="LVZCf0hYnNkqwHZgKI_H-28" value="" style="shape=flexArrow;endArrow=classic;startArrow=classic;html=1;rounded=0;exitX=0.25;exitY=0;exitDx=0;exitDy=0;" parent="1" edge="1">
          <mxGeometry width="100" height="100" relative="1" as="geometry">
            <mxPoint x="924" y="420" as="sourcePoint" />
            <mxPoint x="924" y="336" as="targetPoint" />
          </mxGeometry>
        </mxCell>
        <mxCell id="LVZCf0hYnNkqwHZgKI_H-29" value="&lt;b&gt;&lt;font style=&quot;font-size: 14px;&quot;&gt;Thiết bị&lt;/font&gt;&lt;/b&gt;" style="rounded=0;whiteSpace=wrap;html=1;" parent="1" vertex="1">
          <mxGeometry x="766.5" y="445" width="316" height="30" as="geometry" />
        </mxCell>
        <mxCell id="LVZCf0hYnNkqwHZgKI_H-30" value="&lt;font style=&quot;font-size: 14px;&quot;&gt;Raspberry Pi&lt;/font&gt;" style="rounded=1;whiteSpace=wrap;html=1;" parent="1" vertex="1">
          <mxGeometry x="765.5" y="496" width="318" height="53" as="geometry" />
        </mxCell>
        <mxCell id="LVZCf0hYnNkqwHZgKI_H-33" value="&lt;font style=&quot;font-size: 14px;&quot;&gt;Ngoại vi&lt;/font&gt;" style="rounded=1;whiteSpace=wrap;html=1;" parent="1" vertex="1">
          <mxGeometry x="786" y="608" width="120" height="60" as="geometry" />
        </mxCell>
        <mxCell id="LVZCf0hYnNkqwHZgKI_H-34" value="&lt;font style=&quot;font-size: 14px;&quot;&gt;Publish&lt;/font&gt;" style="text;html=1;align=center;verticalAlign=middle;whiteSpace=wrap;rounded=0;" parent="1" vertex="1">
          <mxGeometry x="960" y="351" width="60" height="30" as="geometry" />
        </mxCell>
        <mxCell id="LVZCf0hYnNkqwHZgKI_H-35" value="&lt;font style=&quot;font-size: 14px;&quot;&gt;Subcribe&lt;/font&gt;" style="text;html=1;align=center;verticalAlign=middle;whiteSpace=wrap;rounded=0;" parent="1" vertex="1">
          <mxGeometry x="818" y="351" width="60" height="30" as="geometry" />
        </mxCell>
        <mxCell id="DWsVAxynY-4hJKjRqhUx-1" value="&lt;span style=&quot;font-size: 14px;&quot;&gt;Camera&lt;/span&gt;" style="rounded=1;whiteSpace=wrap;html=1;" vertex="1" parent="1">
          <mxGeometry x="944" y="608" width="120" height="60" as="geometry" />
        </mxCell>
        <mxCell id="DWsVAxynY-4hJKjRqhUx-5" value="" style="shape=flexArrow;endArrow=classic;html=1;rounded=0;endWidth=9.275147928994084;endSize=3.219230769230769;width=5.769230769230769;entryX=0.25;entryY=1;entryDx=0;entryDy=0;exitX=0.5;exitY=0;exitDx=0;exitDy=0;" edge="1" parent="1" source="LVZCf0hYnNkqwHZgKI_H-33" target="LVZCf0hYnNkqwHZgKI_H-30">
          <mxGeometry width="50" height="50" relative="1" as="geometry">
            <mxPoint x="846" y="599" as="sourcePoint" />
            <mxPoint x="847" y="563" as="targetPoint" />
          </mxGeometry>
        </mxCell>
        <mxCell id="DWsVAxynY-4hJKjRqhUx-6" value="" style="shape=flexArrow;endArrow=classic;html=1;rounded=0;endWidth=9.275147928994084;endSize=3.219230769230769;width=5.769230769230769;entryX=0.25;entryY=1;entryDx=0;entryDy=0;exitX=0.5;exitY=0;exitDx=0;exitDy=0;" edge="1" parent="1" source="DWsVAxynY-4hJKjRqhUx-1">
          <mxGeometry width="50" height="50" relative="1" as="geometry">
            <mxPoint x="1004" y="598" as="sourcePoint" />
            <mxPoint x="1002.5" y="549" as="targetPoint" />
          </mxGeometry>
        </mxCell>
        <mxCell id="DWsVAxynY-4hJKjRqhUx-7" value="&lt;b&gt;&lt;font style=&quot;font-size: 16px;&quot;&gt;Giao diện Web&lt;/font&gt;&lt;/b&gt;" style="rounded=1;whiteSpace=wrap;html=1;" vertex="1" parent="1">
          <mxGeometry x="758" y="32" width="333" height="111" as="geometry" />
        </mxCell>
        <mxCell id="DWsVAxynY-4hJKjRqhUx-10" value="&lt;b&gt;&lt;font style=&quot;font-size: 16px;&quot;&gt;Máy chủ&lt;/font&gt;&lt;/b&gt;" style="rounded=1;whiteSpace=wrap;html=1;" vertex="1" parent="1">
          <mxGeometry x="1349" y="999" width="333" height="111" as="geometry" />
        </mxCell>
        <mxCell id="DWsVAxynY-4hJKjRqhUx-11" value="" style="shape=flexArrow;endArrow=classic;startArrow=classic;html=1;rounded=0;exitX=0.231;exitY=0;exitDx=0;exitDy=0;exitPerimeter=0;entryX=0.231;entryY=0.991;entryDx=0;entryDy=0;entryPerimeter=0;" edge="1" parent="1" source="DWsVAxynY-4hJKjRqhUx-10" target="DWsVAxynY-4hJKjRqhUx-17">
          <mxGeometry width="100" height="100" relative="1" as="geometry">
            <mxPoint x="1472" y="1016" as="sourcePoint" />
            <mxPoint x="1430" y="874" as="targetPoint" />
          </mxGeometry>
        </mxCell>
        <mxCell id="DWsVAxynY-4hJKjRqhUx-12" value="" style="shape=flexArrow;endArrow=classic;startArrow=classic;html=1;rounded=0;exitX=0.75;exitY=0;exitDx=0;exitDy=0;entryX=0.75;entryY=1;entryDx=0;entryDy=0;entryPerimeter=0;" edge="1" parent="1" source="DWsVAxynY-4hJKjRqhUx-10" target="DWsVAxynY-4hJKjRqhUx-17">
          <mxGeometry width="100" height="100" relative="1" as="geometry">
            <mxPoint x="1577" y="970" as="sourcePoint" />
            <mxPoint x="1605" y="878" as="targetPoint" />
          </mxGeometry>
        </mxCell>
        <mxCell id="DWsVAxynY-4hJKjRqhUx-13" value="&lt;font style=&quot;font-size: 14px;&quot;&gt;HTTP&lt;/font&gt;" style="text;html=1;align=center;verticalAlign=middle;whiteSpace=wrap;rounded=0;" vertex="1" parent="1">
          <mxGeometry x="1606" y="943" width="60" height="30" as="geometry" />
        </mxCell>
        <mxCell id="DWsVAxynY-4hJKjRqhUx-14" value="&lt;font style=&quot;font-size: 14px;&quot;&gt;Websocket&lt;/font&gt;" style="text;html=1;align=center;verticalAlign=middle;whiteSpace=wrap;rounded=0;" vertex="1" parent="1">
          <mxGeometry x="1344" y="943" width="60" height="30" as="geometry" />
        </mxCell>
        <mxCell id="DWsVAxynY-4hJKjRqhUx-15" value="&lt;div style=&quot;&quot;&gt;&lt;span style=&quot;background-color: initial;&quot;&gt;&lt;font style=&quot;font-size: 14px;&quot;&gt;Cơ sở dữ liệu&lt;/font&gt;&lt;/span&gt;&lt;/div&gt;" style="shape=cylinder3;whiteSpace=wrap;html=1;boundedLbl=1;backgroundOutline=1;size=15;align=center;" vertex="1" parent="1">
          <mxGeometry x="1193" y="1007.75" width="72" height="93.5" as="geometry" />
        </mxCell>
        <mxCell id="DWsVAxynY-4hJKjRqhUx-16" value="" style="shape=flexArrow;endArrow=classic;startArrow=classic;html=1;rounded=0;entryX=0;entryY=0.5;entryDx=0;entryDy=0;exitX=1;exitY=0.5;exitDx=0;exitDy=0;exitPerimeter=0;startWidth=10;startSize=2.41;endWidth=10;endSize=2.41;" edge="1" parent="1" source="DWsVAxynY-4hJKjRqhUx-15" target="DWsVAxynY-4hJKjRqhUx-10">
          <mxGeometry width="100" height="100" relative="1" as="geometry">
            <mxPoint x="1263" y="1034" as="sourcePoint" />
            <mxPoint x="1363" y="934" as="targetPoint" />
          </mxGeometry>
        </mxCell>
        <mxCell id="DWsVAxynY-4hJKjRqhUx-17" value="&lt;b&gt;&lt;font style=&quot;font-size: 16px;&quot;&gt;Giao diện Web&lt;/font&gt;&lt;/b&gt;" style="rounded=1;whiteSpace=wrap;html=1;" vertex="1" parent="1">
          <mxGeometry x="1349" y="806" width="333" height="111" as="geometry" />
        </mxCell>
      </root>
    </mxGraphModel>
  </diagram>
</mxfile>
